<svg xmlns="http://www.w3.org/2000/svg" xmlns:xlink="http://www.w3.org/1999/xlink" width="88" height="56" version="1.1" viewBox="0 0 88 56"><title>BTUICardUnknown</title><description>Created with Sketch.</description><defs><linearGradient id="linearGradient-1" x1="50%" x2="50%" y1="0%" y2="100%"><stop offset="0%" stop-color="#FFF"/><stop offset="100%" stop-color="#000"/></linearGradient></defs><g id="Page-1" fill="none" fill-rule="evenodd" stroke="none" stroke-width="1"><g id="Unknown" transform="translate(-0.500000, -0.500000)"><g id="Card-#"><g id="CC-numbers"><g id="CC-number" fill="#2A2D2F" transform="translate(6.041298, 30.497332)"><rect id="Rectangle-2445" width="2" height="6" x=".459" y=".003"/><rect id="Rectangle-2445" width="2" height="6" x="4.459" y=".003"/><rect id="Rectangle-2445" width="2" height="6" x="8.459" y=".003"/><rect id="Rectangle-2445" width="2" height="6" x="12.459" y=".003"/><rect id="Rectangle-2445" width="2" height="6" x="20.459" y=".003"/><rect id="Rectangle-2445" width="2" height="6" x="24.459" y=".003"/><rect id="Rectangle-2445" width="2" height="6" x="28.459" y=".003"/><rect id="Rectangle-2445" width="2" height="6" x="32.459" y=".003"/><rect id="Rectangle-2445" width="2" height="6" x="40.459" y=".003"/><rect id="Rectangle-2445" width="2" height="6" x="44.459" y=".003"/><rect id="Rectangle-2445" width="2" height="6" x="48.459" y=".003"/><rect id="Rectangle-2445" width="2" height="6" x="52.459" y=".003"/><rect id="Rectangle-2445" width="2" height="6" x="60.459" y=".003"/><rect id="Rectangle-2445" width="2" height="6" x="64.459" y=".003"/><rect id="Rectangle-2445" width="2" height="6" x="68.459" y=".003"/><rect id="Rectangle-2445" width="2" height="6" x="72.459" y=".003"/></g><rect id="Rectangle-2461" width="14" height="2" x="26.5" y="42.5" fill="#CECFCC"/><rect id="Rectangle-2461" width="34" height="2" x="6.5" y="46.5" fill="#CECFCC"/></g><rect id="Rectangle-52" width="14" height="14" x="6.5" y="6.5" fill="#CECFCC" rx=".75"/><rect id="Rectangle-52" width="8" height="8" x="72.5" y="40.5" fill="#CECFCC" rx=".75"/></g></g></g></svg>